<svg xmlns="http://www.w3.org/2000/svg" viewBox="0 0 90 110" fill="none" stroke="currentColor" stroke-width="2.5" stroke-linecap="round" stroke-linejoin="round">
  <!-- frame -->
  <rect x="5" y="5" width="80" height="100" rx="3" fill="#d8c8a8" stroke="#8a7050"/>
  <!-- shelves -->
  <line x1="8" y1="28" x2="82" y2="28" stroke="#a08860" stroke-width="2"/>
  <line x1="8" y1="50" x2="82" y2="50" stroke="#a08860" stroke-width="2"/>
  <line x1="8" y1="72" x2="82" y2="72" stroke="#a08860" stroke-width="2"/>
  <line x1="8" y1="94" x2="82" y2="94" stroke="#a08860" stroke-width="2"/>
  <!-- books row 1 -->
  <rect x="10" y="10" width="8" height="17" rx="1" fill="#e07060"/>
  <rect x="20" y="12" width="6" height="15" rx="1" fill="#60a060"/>
  <rect x="28" y="10" width="9" height="17" rx="1" fill="#6080c0"/>
  <rect x="39" y="13" width="7" height="14" rx="1" fill="#d0a040"/>
  <rect x="48" y="10" width="8" height="17" rx="1" fill="#a050a0"/>
  <!-- books row 2 -->
  <rect x="10" y="32" width="7" height="17" rx="1" fill="#40a0a0"/>
  <rect x="19" y="34" width="9" height="15" rx="1" fill="#e08040"/>
  <rect x="30" y="32" width="6" height="17" rx="1" fill="#8070c0"/>
</svg>
